<?xml version="1.0" standalone="no"?>
<!DOCTYPE svg PUBLIC "-//W3C//DTD SVG 20010904//EN"
 "http://www.w3.org/TR/2001/REC-SVG-20010904/DTD/svg10.dtd">
<svg version="1.0" xmlns="http://www.w3.org/2000/svg"
 width="720.000000pt" height="855.000000pt" viewBox="0 0 720.000000 855.000000"
 preserveAspectRatio="xMidYMid meet">
<metadata>
Created by potrace 1.16, written by Peter Selinger 2001-2019
</metadata>
<g transform="translate(0.000000,855.000000) scale(0.100000,-0.100000)"
fill="#000000" stroke="none">
<path d="M3383 7915 c-171 -20 -218 -29 -215 -43 1 -7 -2 -12 -8 -12 -5 0 -10
6 -10 13 0 6 -5 4 -11 -5 -5 -10 -21 -18 -34 -18 -13 0 -35 -4 -49 -10 -17 -6
-26 -6 -26 0 0 6 5 10 11 10 5 0 8 4 4 9 -7 12 -60 -3 -80 -22 -8 -8 -11 -17
-8 -21 4 -3 -1 -6 -10 -6 -10 0 -17 7 -17 14 0 13 -7 13 -52 0 -143 -41 -259
-129 -312 -239 -28 -58 -29 -67 -35 -247 -3 -102 -9 -190 -13 -193 -4 -4 -3
-16 3 -26 5 -11 6 -19 1 -19 -4 0 -16 -17 -26 -37 -19 -39 -57 -92 -114 -156
-18 -21 -31 -45 -28 -53 3 -8 0 -14 -7 -14 -13 -1 -47 -67 -47 -94 0 -9 -7
-30 -15 -46 -31 -60 -37 -218 -20 -570 4 -74 8 -181 9 -238 3 -90 6 -106 25
-125 21 -21 21 -21 21 -1 0 22 56 104 71 104 10 0 12 -44 3 -77 -4 -13 -12
-23 -20 -23 -18 0 -36 -68 -24 -90 5 -10 7 -19 5 -21 -2 -3 -7 -67 -10 -144
-4 -92 -11 -145 -19 -155 -14 -16 -10 -100 4 -100 4 0 11 33 14 73 4 39 11 88
16 107 19 74 31 126 35 149 2 12 9 28 14 35 5 6 13 38 18 71 l8 60 48 3 c35 2
49 -1 53 -12 8 -22 24 -10 24 18 0 13 9 35 20 49 23 29 106 62 116 45 4 -7 9
-6 14 2 5 8 52 14 139 18 104 4 131 8 131 19 0 12 -23 13 -142 8 -79 -3 -189
-13 -246 -21 -118 -16 -153 -18 -134 -6 7 5 17 47 23 103 6 53 23 133 40 182
17 49 28 96 25 104 -4 9 -2 21 3 27 5 6 14 31 21 55 9 35 9 49 -1 69 -13 23
-11 27 31 64 25 22 39 37 33 33 -25 -12 -33 6 -12 28 20 22 47 75 45 90 -1 4
14 16 32 27 36 22 42 35 12 25 -29 -9 -25 11 6 31 18 12 22 19 13 25 -7 4 -17
5 -21 3 -4 -3 -5 2 -2 10 3 9 12 16 20 16 8 0 14 9 14 19 0 11 5 23 10 26 6 3
10 15 10 26 0 12 7 19 18 19 11 0 34 7 52 16 27 14 34 14 41 3 5 -8 9 -9 9 -3
0 6 20 19 45 28 25 10 45 24 45 31 0 31 45 28 53 -3 3 -12 5 -10 6 6 1 15 -5
22 -16 22 -16 0 -16 1 -1 17 27 26 145 50 213 42 34 -3 46 1 40 14 -4 6 0 3 9
-7 13 -17 29 -19 116 -19 55 0 100 -3 100 -8 0 -5 7 -6 15 -3 10 4 18 -3 24
-19 7 -19 15 -24 30 -20 12 3 18 9 15 14 -3 5 0 9 5 9 6 0 11 -5 11 -11 0 -6
7 -9 15 -5 8 3 15 0 15 -5 0 -7 -9 -9 -21 -6 -12 3 -19 1 -16 -6 2 -6 23 -13
46 -15 31 -3 50 -11 70 -33 16 -16 33 -29 38 -29 6 0 21 -8 34 -18 13 -11 31
-19 40 -19 27 0 88 -52 77 -65 -7 -9 57 -58 75 -58 12 0 42 -10 67 -22 55 -26
49 -24 86 -33 19 -4 36 -17 43 -31 8 -18 18 -24 38 -23 23 1 24 3 6 6 -12 2
-24 11 -27 19 -4 11 1 13 22 8 48 -10 54 -14 48 -29 -3 -10 5 -16 29 -21 19
-3 35 -11 35 -17 0 -6 3 -8 6 -4 4 3 19 0 35 -8 15 -8 39 -15 52 -15 13 0 27
-3 31 -7 4 -4 27 -8 52 -9 24 -1 55 -9 69 -18 23 -15 25 -15 25 0 0 13 6 11
34 -10 22 -16 41 -24 52 -19 12 4 15 3 10 -5 -4 -7 -1 -12 8 -12 9 0 32 -16
52 -35 19 -19 39 -35 43 -35 3 0 18 -12 32 -27 32 -35 70 -63 84 -63 5 0 20
-16 33 -36 14 -21 27 -32 35 -28 7 4 9 3 4 -1 -4 -5 0 -17 10 -27 14 -16 14
-18 0 -18 -8 0 -18 6 -21 13 -3 6 -5 3 -3 -7 1 -12 13 -22 29 -27 31 -8 75
-46 65 -56 -4 -3 -7 -1 -7 5 0 7 -8 12 -18 12 -10 0 -23 5 -30 12 -9 9 -12 9
-12 0 0 -7 5 -12 10 -12 6 0 10 -7 10 -15 0 -8 -4 -15 -10 -15 -5 0 -10 -5
-10 -11 0 -7 11 -9 30 -6 17 4 32 2 36 -5 4 -7 3 -8 -4 -4 -17 10 -36 -42 -22
-59 8 -10 7 -16 -6 -23 -11 -6 -14 -14 -8 -23 11 -18 13 -49 2 -43 -4 3 -8 -6
-8 -20 0 -14 -4 -27 -9 -30 -12 -8 -2 -46 13 -46 6 0 4 -5 -4 -10 -10 -6 -11
-10 -2 -10 6 0 12 -5 12 -12 0 -7 -7 -5 -17 4 -36 32 -94 58 -129 58 -21 0
-33 -4 -29 -10 3 -5 1 -10 -4 -10 -6 0 -11 -7 -11 -15 0 -18 -2 -18 -35 -3
-22 10 -28 9 -35 -2 -6 -9 -24 -14 -51 -14 -26 1 -36 -2 -28 -7 8 -5 26 -9 40
-9 16 0 26 -6 26 -15 0 -8 -4 -15 -9 -15 -4 0 -8 5 -8 11 0 8 -4 8 -12 1 -7
-5 -51 -13 -98 -16 -47 -3 -105 -8 -130 -11 -25 -4 -60 -6 -79 -5 -30 1 -33
-1 -21 -15 11 -13 10 -14 -4 -9 -9 3 -16 10 -16 14 0 4 -10 8 -22 8 -13 0 -36
4 -51 8 -16 3 -38 2 -50 -4 -12 -6 -35 -13 -52 -15 -78 -9 -105 -50 -99 -147
7 -103 31 -164 58 -147 2 1 13 -6 24 -16 11 -10 23 -17 28 -16 5 1 25 0 44 -4
19 -3 64 -8 99 -11 l64 -6 -43 23 c-52 28 -58 38 -25 53 22 11 26 8 47 -23 28
-42 115 -78 151 -63 30 13 57 35 57 48 0 6 5 12 11 14 7 2 12 18 13 36 1 39
23 42 54 9 26 -27 27 -40 7 -57 -8 -7 -15 -21 -15 -32 0 -25 -22 -48 -46 -48
-4 0 -1 -7 6 -15 16 -19 31 -20 24 -1 -3 8 -1 17 5 21 6 3 11 2 11 -3 0 -6 11
-13 25 -16 14 -4 25 -10 25 -15 0 -4 12 -6 26 -3 19 3 25 1 20 -7 -4 -6 -1
-11 8 -11 8 0 17 4 20 9 3 5 15 7 26 4 15 -4 20 0 20 15 0 16 10 22 48 31 26
5 57 8 67 6 11 -2 30 -4 43 -4 19 -1 22 -7 22 -38 0 -43 13 -72 24 -54 11 17
26 13 24 -6 -3 -37 2 -63 13 -63 17 0 60 109 75 190 8 41 17 89 20 107 4 18 3
40 -1 50 -5 10 -7 22 -6 27 1 5 -4 13 -11 17 -7 5 -13 12 -13 16 -2 29 -20 53
-45 62 -17 5 -30 12 -30 15 0 3 20 -2 45 -11 42 -14 47 -14 89 7 47 22 65 51
101 155 47 139 62 253 70 515 7 235 10 265 32 326 19 54 13 262 -8 299 -4 6
-9 27 -13 48 -11 61 -72 170 -131 231 -57 61 -87 83 -335 248 -191 127 -188
125 -226 143 -18 8 -45 25 -60 38 -16 13 -45 32 -64 42 -19 10 -37 21 -40 25
-9 13 -84 48 -125 58 -22 6 -87 13 -145 17 -58 3 -134 13 -170 21 -36 8 -112
25 -170 38 -237 54 -338 62 -527 41z"/>
<path d="M3118 5853 c12 -2 22 -11 22 -18 0 -10 -9 -12 -34 -8 -47 7 -53 -11
-11 -36 19 -11 35 -25 35 -30 0 -5 8 -12 18 -14 9 -2 -8 -5 -38 -5 -97 -2
-192 -11 -204 -20 -6 -5 -33 -15 -59 -22 -33 -9 -56 -23 -73 -45 -31 -41 -30
-45 6 -45 31 0 69 20 102 53 10 9 27 18 38 19 11 0 26 1 33 2 6 1 15 5 19 11
4 5 10 6 15 1 4 -4 -1 -13 -12 -19 -11 -6 -20 -9 -20 -7 0 2 -19 -8 -42 -23
-23 -14 -52 -29 -66 -32 -20 -5 -47 -40 -47 -60 0 -3 18 -3 40 0 24 3 40 1 40
-5 0 -5 9 -10 20 -10 15 0 22 9 27 31 5 24 15 35 47 50 59 27 69 25 64 -11 -3
-18 1 -35 9 -41 7 -6 13 -16 13 -22 0 -23 38 -36 103 -37 63 0 71 2 95 29 49
52 52 57 39 70 -9 9 -8 11 5 6 9 -4 19 -13 22 -21 3 -8 12 -14 21 -14 13 0 17
-6 14 -26 0 -4 5 -11 13 -16 9 -7 7 -8 -8 -4 -11 4 -29 -1 -40 -10 -10 -8 -14
-13 -7 -10 6 4 14 3 17 -2 3 -5 40 -8 83 -8 l78 1 -3 28 c-4 30 0 33 20 14 7
-8 27 -16 45 -20 26 -5 33 -3 38 13 3 10 12 17 19 14 15 -6 36 36 36 71 0 29
-10 56 -19 51 -4 -3 -8 4 -8 15 -1 10 2 19 6 19 14 0 31 -26 23 -35 -4 -5 1
-5 11 -2 10 4 16 3 13 -1 -2 -4 -1 -14 5 -22 6 -11 9 -7 9 15 0 37 -22 70 -58
89 -74 38 -415 108 -505 105 -23 -1 -26 -3 -9 -6z"/>
<path d="M3756 5750 c-3 -17 -14 -31 -27 -35 -13 -5 -17 -10 -11 -14 12 -7 3
-90 -17 -158 -6 -20 -6 -33 0 -33 5 0 9 -8 10 -17 0 -10 8 17 17 59 10 43 22
83 29 89 21 21 155 24 217 4 l56 -18 -4 -51 c-3 -28 -8 -61 -12 -73 -4 -16 -2
-23 8 -23 7 0 14 -8 15 -17 0 -10 6 -34 13 -53 7 -19 17 -47 23 -62 5 -16 16
-28 24 -28 10 0 11 5 4 18 -33 62 -53 340 -23 335 20 -5 14 14 -7 20 -14 3
-19 12 -17 36 2 31 2 31 -46 31 -38 0 -46 -3 -42 -15 4 -8 10 -15 16 -15 5 0
6 -4 3 -10 -7 -11 -96 -13 -133 -4 -22 6 -22 8 -6 25 19 21 15 24 -47 32 -34
5 -37 3 -43 -23z"/>
<path d="M5221 5359 c-18 -27 -39 -49 -46 -49 -6 0 -25 -32 -40 -71 -23 -56
-29 -88 -30 -153 -1 -45 -4 -86 -7 -92 -3 -5 -6 -22 -6 -39 -1 -36 -28 -158
-44 -198 -6 -15 -11 -36 -12 -45 -3 -31 -29 -102 -37 -102 -5 0 -2 18 6 40 8
22 10 40 5 40 -6 0 -10 -4 -10 -10 0 -21 -20 -9 -26 16 -4 14 -10 22 -15 17
-5 -5 -5 -23 0 -41 8 -26 7 -32 -5 -32 -8 0 -12 -4 -9 -10 3 -5 -1 -10 -10
-10 -10 0 -24 -19 -36 -45 -11 -25 -23 -43 -27 -41 -4 3 -17 -9 -27 -25 -11
-16 -35 -35 -53 -41 -26 -10 -32 -17 -28 -33 7 -27 -7 -47 -30 -45 -32 4 -37
1 -24 -15 17 -21 7 -29 -19 -15 -27 14 -37 8 -44 -29 -5 -24 -10 -28 -31 -24
-33 7 -33 -7 0 -42 20 -22 23 -30 12 -36 -10 -7 -8 -9 6 -9 18 0 18 -1 4 -12
-18 -15 -30 -66 -17 -74 19 -11 8 -24 -16 -18 -21 5 -24 3 -19 -11 5 -12 14
-15 30 -11 13 4 24 2 24 -3 0 -5 -10 -11 -21 -14 -22 -6 -49 12 -49 32 0 5 -7
14 -16 19 -18 10 -31 72 -15 72 6 0 11 8 12 18 0 14 2 14 7 2 9 -19 34 -20 40
-2 2 7 -4 16 -15 18 -21 6 -50 44 -33 44 5 0 10 5 10 10 0 6 -5 10 -10 10 -6
0 -28 19 -51 42 -22 23 -48 43 -56 44 -9 2 -19 7 -22 12 -9 14 -74 39 -88 35
-7 -3 -27 6 -45 18 -18 13 -39 24 -48 26 -8 1 -24 13 -35 26 -11 13 -28 27
-38 30 -9 4 -22 18 -27 32 -5 14 -17 28 -25 31 -20 8 -19 40 1 48 9 3 34 6 57
6 23 0 47 4 53 8 15 10 34 91 23 98 -5 3 -9 0 -9 -7 0 -8 -4 -7 -12 3 -29 37
-212 53 -256 22 -12 -8 -46 -17 -75 -20 -108 -10 -148 -5 -213 26 -50 24 -78
30 -128 30 -65 0 -130 -16 -121 -30 3 -4 -6 -11 -20 -14 -18 -5 -25 -13 -25
-31 0 -32 34 -53 90 -55 70 -3 78 -1 58 11 -34 19 -17 29 51 29 66 0 72 -2
115 -37 41 -35 63 -80 34 -70 -7 2 -28 -5 -46 -15 -20 -11 -42 -16 -53 -13
-11 4 -26 1 -34 -5 -12 -10 -15 -9 -16 6 0 11 -3 14 -6 7 -2 -7 -9 -13 -14
-13 -12 0 -7 32 6 42 6 5 5 8 -2 8 -7 0 -17 -10 -24 -21 -9 -17 -8 -23 2 -30
19 -11 0 -30 -32 -31 -13 -1 -30 -6 -37 -11 -20 -15 -26 0 -8 18 9 9 13 22 9
28 -4 7 -10 3 -16 -11 -6 -12 -23 -27 -39 -34 -19 -9 -28 -19 -26 -33 2 -15
-2 -19 -19 -18 -16 2 -23 -3 -23 -13 0 -13 -3 -14 -14 -5 -10 8 -16 8 -25 -3
-17 -20 -51 -27 -51 -10 0 8 -4 14 -10 14 -5 0 -10 -5 -10 -10 0 -6 -6 -10
-12 -9 -29 6 -74 -13 -83 -34 -6 -12 -21 -24 -35 -26 l-25 -3 25 22 c14 12 18
18 10 14 -8 -5 -24 -7 -35 -6 -12 2 -30 -8 -43 -23 -12 -14 -28 -23 -34 -19
-7 4 -8 3 -4 -4 4 -7 0 -22 -8 -33 -11 -17 -12 -26 -3 -40 9 -14 9 -21 -1 -31
-16 -16 -15 -28 2 -28 7 0 19 -13 26 -30 7 -16 16 -27 21 -24 5 3 9 -2 9 -10
0 -26 17 -26 45 0 23 21 35 25 62 21 18 -3 33 -1 33 4 0 5 28 9 63 8 36 -1 74
4 88 11 13 7 25 12 27 11 1 -2 19 0 40 3 50 8 172 9 437 3 194 -5 227 -8 275
-27 30 -12 59 -24 64 -28 6 -4 42 -14 80 -22 65 -14 70 -17 78 -46 6 -23 15
-33 33 -36 14 -3 28 -1 31 3 3 5 16 9 30 9 13 0 24 5 24 11 0 6 15 0 34 -15
19 -14 39 -26 45 -26 14 0 14 -13 0 -27 -6 -6 -8 -17 -3 -24 4 -7 9 -24 10
-37 2 -17 -1 -22 -11 -18 -9 3 -19 -3 -25 -15 -13 -23 -30 -16 -30 12 0 10 -5
19 -11 19 -5 0 -7 -4 -4 -10 3 -5 3 -16 -2 -22 -4 -7 -8 -22 -8 -33 0 -11 -6
-19 -13 -17 -10 2 -10 -2 -2 -19 10 -18 9 -20 -8 -15 -18 6 -38 -15 -34 -36 1
-5 -4 -8 -12 -8 -8 0 -17 -13 -21 -30 -4 -19 -13 -30 -23 -30 -10 0 -23 -10
-31 -21 -11 -18 -11 -23 1 -30 11 -7 10 -11 -2 -18 -8 -5 -18 -7 -22 -5 -5 3
-15 -2 -24 -10 -9 -9 -19 -14 -24 -11 -5 3 -11 1 -14 -4 -3 -5 -15 -7 -26 -4
-11 3 -20 0 -20 -6 0 -6 5 -11 10 -11 6 0 10 -7 10 -15 0 -8 -7 -15 -15 -15
-8 0 -15 -7 -15 -15 0 -8 -5 -15 -11 -15 -6 0 -9 9 -6 20 3 11 1 18 -4 14 -5
-3 -9 1 -9 8 0 10 -3 9 -9 -2 -6 -8 -7 -18 -5 -22 3 -4 0 -8 -5 -8 -10 0 -36
-19 -68 -49 -13 -12 -16 -12 -24 0 -7 12 -9 11 -9 -2 0 -22 -26 -45 -32 -28
-3 9 -14 7 -41 -6 -20 -9 -42 -15 -49 -13 -7 3 -20 -5 -30 -16 -11 -13 -17
-16 -18 -8 0 8 -5 10 -12 6 -7 -4 -37 -8 -67 -8 -50 -1 -59 2 -83 29 -23 25
-29 28 -38 15 -5 -8 -10 -12 -10 -7 0 4 -10 1 -23 -7 -20 -14 -25 -13 -52 4
-21 14 -33 16 -42 9 -9 -8 -17 -7 -28 5 -23 23 -37 20 -30 -6 6 -23 6 -23 -7
-2 -7 12 -19 19 -25 17 -8 -3 -13 5 -14 19 -1 23 -1 23 -9 -2 -5 -15 -8 -19
-9 -8 -1 9 -10 20 -21 23 -11 3 -20 15 -20 25 0 21 -28 40 -47 33 -7 -3 -13
-11 -13 -20 0 -12 -2 -12 -16 2 -9 9 -14 25 -11 35 3 11 1 20 -4 20 -5 0 -9 8
-9 17 0 9 -3 13 -7 9 -11 -10 -12 -36 -2 -36 5 0 9 -4 9 -10 0 -13 -37 -13
-45 0 -4 6 -2 17 5 25 13 16 -4 60 -21 50 -5 -4 -9 -2 -9 4 0 6 -6 9 -12 7 -7
-1 -10 -1 -5 1 11 7 8 31 -5 36 -7 3 -4 6 7 7 19 1 19 1 -2 13 -21 12 -23 15
-23 38 0 5 -5 7 -11 3 -16 -9 -30 17 -22 41 5 17 4 18 -10 7 -19 -16 -35 -8
-47 24 -5 13 -13 24 -17 23 -22 -4 -43 2 -38 10 3 5 1 12 -4 15 -5 3 -16 -10
-25 -29 -17 -36 -22 -38 -68 -35 -20 1 -28 -3 -28 -15 0 -15 -1 -15 -16 -1 -8
9 -12 20 -9 26 3 5 1 10 -6 10 -6 0 -9 8 -6 19 3 14 0 17 -15 13 -12 -3 -18 0
-16 9 2 7 -7 18 -19 24 -13 5 -23 18 -23 28 0 12 -4 16 -12 11 -10 -6 -10 -4
0 7 16 18 15 29 -3 29 -8 0 -18 12 -21 26 -4 14 -9 22 -13 17 -11 -15 -30 -13
-36 6 -3 10 -17 23 -30 29 -14 6 -25 18 -25 27 0 8 -4 15 -10 15 -16 0 -12 42
7 62 16 18 8 23 -21 12 -8 -3 -12 -12 -10 -19 6 -16 -14 -31 -26 -19 -18 20
-20 52 -5 68 13 12 14 20 5 36 -6 11 -15 18 -19 16 -7 -5 -26 26 -29 47 -2 12
-26 35 -33 31 -4 -2 -10 15 -13 38 -4 24 -14 50 -23 60 -9 10 -13 28 -11 43 3
14 1 28 -4 31 -4 3 -6 10 -3 15 4 5 3 9 -2 9 -4 0 -9 28 -11 63 -2 54 -10 91
-52 232 -5 17 -11 48 -15 70 -10 68 -27 68 -19 0 4 -33 7 -89 7 -125 -1 -36 5
-87 13 -114 8 -27 14 -51 14 -52 0 -10 -54 -54 -66 -54 -9 0 0 -15 25 -40 40
-40 62 -89 101 -220 12 -41 44 -120 69 -175 26 -55 56 -120 66 -145 11 -25 23
-48 28 -51 5 -3 7 -15 6 -25 -2 -11 0 -25 5 -32 8 -14 -18 -41 -41 -42 -19 0
-16 -21 4 -35 15 -11 15 -15 4 -29 -7 -9 -20 -16 -27 -16 -7 0 -40 -27 -71
-59 -50 -50 -63 -58 -86 -54 -16 3 -27 1 -27 -6 0 -6 6 -11 14 -11 15 0 29
-27 21 -40 -3 -5 -1 -11 4 -14 5 -4 15 9 21 29 11 34 101 125 124 125 6 0 17
-4 25 -9 17 -11 7 -41 -12 -41 -8 0 -20 -6 -27 -14 -6 -8 -17 -13 -24 -10 -17
6 -49 -25 -42 -41 2 -7 -7 -24 -20 -38 -28 -31 -30 -51 -8 -102 17 -41 12 -52
-26 -57 -38 -5 -72 -79 -64 -138 11 -80 74 -264 87 -251 11 11 -1 58 -36 139
-10 24 -16 48 -14 55 3 7 8 4 12 -8 4 -11 15 -42 25 -70 11 -27 22 -59 25 -70
6 -19 8 -18 28 10 45 63 74 85 111 85 25 0 38 -6 46 -20 10 -18 8 -20 -28 -20
-49 0 -82 -25 -107 -79 l-18 -41 36 -93 c19 -50 41 -109 47 -129 6 -21 15 -38
18 -38 4 0 22 27 40 60 40 72 81 95 150 85 l44 -6 -36 55 c-20 31 -36 61 -36
66 0 5 -11 17 -26 26 -17 12 -22 20 -15 27 8 8 6 16 -4 27 -9 10 -17 31 -18
49 -1 17 -7 31 -13 31 -14 0 -24 81 -12 95 5 6 11 1 14 -13 4 -12 10 -22 15
-22 5 0 6 6 3 14 -4 11 9 51 34 99 2 4 -3 4 -12 1 -20 -8 -21 5 -1 20 11 8 14
20 9 46 -6 29 -9 31 -16 15 -8 -20 -8 -20 -5 0 3 29 41 27 45 -2 2 -13 10 -23
18 -23 8 0 17 -6 20 -14 7 -18 54 -50 61 -42 3 3 0 12 -6 20 -7 8 -8 17 -3 20
6 3 17 -5 26 -19 20 -30 20 -35 1 -35 -9 0 -12 -6 -9 -15 4 -8 12 -15 18 -15
7 0 23 -11 36 -25 13 -14 28 -25 33 -25 5 0 -5 15 -22 32 -18 18 -28 34 -22
36 14 5 71 -55 68 -70 -2 -7 -2 -10 0 -5 8 14 22 -4 16 -20 -5 -13 -2 -15 11
-10 10 4 15 3 11 -3 -3 -6 -1 -10 5 -10 7 0 34 -22 61 -50 27 -27 44 -50 37
-50 -6 0 -3 -6 7 -14 10 -7 27 -11 37 -8 10 2 18 -1 18 -8 0 -7 8 -19 18 -26
14 -11 15 -15 3 -23 -10 -6 -6 -11 15 -20 20 -8 22 -10 7 -7 -13 2 -23 0 -23
-5 0 -5 9 -9 20 -9 12 0 34 -7 50 -15 17 -9 30 -11 30 -5 0 5 5 10 10 10 6 0
10 -7 10 -16 0 -11 6 -13 20 -9 10 3 33 -1 49 -9 17 -9 39 -16 51 -16 13 0 19
-4 14 -11 -5 -9 1 -10 20 -5 16 4 26 2 26 -4 0 -6 8 -10 18 -8 11 2 26 -3 35
-10 18 -15 41 -7 31 10 -8 13 38 -1 47 -14 4 -5 17 -9 30 -8 54 5 109 -1 109
-11 0 -5 -4 -7 -10 -4 -5 3 -10 0 -10 -8 0 -11 13 -12 66 -5 37 4 76 10 88 14
15 4 13 0 -9 -15 -35 -24 -24 -27 31 -7 25 8 47 10 62 5 13 -5 22 -5 22 1 0 6
5 10 11 10 5 0 7 -6 3 -12 -6 -10 -4 -10 8 0 9 7 20 12 24 11 5 -1 17 1 27 6
10 4 20 5 23 2 3 -3 25 5 49 19 51 28 55 29 55 9 0 -19 14 -19 30 0 7 8 20 14
29 13 10 -2 15 4 15 15 -2 14 1 15 13 5 12 -9 16 -9 24 3 7 11 9 9 9 -9 0 -13
-4 -20 -10 -17 -5 3 -10 1 -10 -4 0 -6 18 -11 41 -11 31 0 40 3 36 14 -3 8 1
17 9 20 25 9 64 7 64 -4 0 -6 -3 -9 -7 -9 -20 3 -43 -2 -43 -10 0 -16 51 1 66
23 12 18 16 19 24 6 9 -13 14 -7 11 13 0 4 8 7 19 7 11 0 20 7 20 15 0 9 7 15
17 13 11 -2 19 5 21 17 7 33 24 47 54 43 15 -3 28 -1 28 4 0 20 30 6 36 -17 3
-14 10 -25 15 -25 9 0 23 -63 21 -92 0 -10 4 -20 10 -24 17 -11 6 127 -14 166
-26 50 -22 60 10 24 15 -17 37 -34 49 -38 11 -4 29 -18 38 -32 16 -24 15 -29
-8 -87 -14 -34 -36 -88 -51 -120 l-26 -57 30 15 c27 14 34 13 85 -6 31 -12 72
-35 91 -51 41 -36 58 -30 23 8 -26 28 -129 84 -154 84 -8 0 -15 5 -15 10 0 31
115 -12 166 -61 l31 -30 6 58 c21 190 21 212 1 234 -28 31 -68 49 -109 49 -24
0 -35 -4 -35 -15 0 -27 -16 -16 -30 20 -10 26 -17 32 -26 24 -16 -13 -34 -4
-34 17 0 8 -5 14 -11 14 -6 0 -8 9 -4 20 4 11 2 20 -4 20 -20 0 -11 31 22 78
17 26 34 56 37 67 14 51 62 -4 73 -85 3 -25 2 -65 -3 -90 -9 -51 -7 -58 15
-40 19 16 68 7 102 -20 14 -11 30 -17 36 -13 5 3 8 2 5 -3 -3 -5 -2 -18 3 -29
6 -13 8 11 7 65 -1 47 1 90 5 97 4 6 0 16 -8 23 -8 7 -15 23 -15 37 0 43 -76
94 -95 63 -9 -14 -25 -2 -25 18 0 9 -5 24 -10 32 -9 13 -11 13 -21 0 -8 -12
-9 -9 -5 11 8 38 -12 93 -29 79 -10 -8 -25 1 -64 40 -29 29 -48 56 -45 64 3 8
1 17 -5 21 -6 3 -11 11 -11 16 0 12 47 -17 84 -53 15 -15 32 -28 35 -28 4 0
15 -16 24 -35 9 -19 21 -35 25 -35 5 0 14 -12 21 -26 16 -36 24 -25 9 13 -10
26 -8 35 11 67 20 31 21 37 7 42 -9 3 -28 -2 -43 -11 -25 -17 -27 -17 -40 1
-8 11 -12 26 -10 34 5 21 -17 40 -33 30 -16 -10 -50 9 -50 27 0 7 -4 13 -10
13 -5 0 -10 11 -10 24 0 15 -11 33 -26 45 -15 12 -22 21 -15 21 16 0 14 16 -5
35 -20 19 -12 41 38 107 18 24 42 61 53 83 11 22 23 42 26 45 13 10 97 187
123 260 16 41 32 82 37 90 16 27 31 65 34 90 2 14 4 25 5 25 1 0 3 15 6 34 2
18 13 54 25 80 11 25 23 74 26 108 3 35 12 68 19 74 8 6 14 17 14 23 0 6 9 18
20 26 11 8 20 18 20 23 0 5 -9 5 -20 2 -18 -6 -20 -2 -20 52 0 32 8 78 17 103
10 28 16 71 15 117 -1 40 3 83 8 95 5 13 9 17 9 10 1 -7 6 -10 11 -7 6 3 10
-3 10 -14 0 -10 3 -27 6 -36 9 -22 53 70 54 111 0 17 7 51 16 77 24 71 14 82
-25 26z m-1385 -744 c4 -8 1 -22 -5 -29 -9 -11 -9 -16 -1 -21 7 -4 10 -16 7
-26 -4 -14 0 -19 16 -20 17 -1 18 -2 5 -6 -21 -5 -24 -43 -6 -61 9 -9 8 -12
-4 -12 -21 0 -32 -16 -22 -32 5 -7 11 -5 21 7 8 12 13 14 13 6 0 -7 6 -11 13
-8 7 2 27 -8 45 -22 l32 -28 -22 -10 c-37 -16 -93 -33 -114 -33 -14 0 -16 -2
-6 -9 10 -6 8 -10 -8 -14 -14 -3 -28 1 -40 13 -11 11 -31 22 -45 26 -37 9 -52
42 -28 60 10 7 23 14 30 14 6 0 18 6 25 13 18 18 48 17 48 -1 0 -9 3 -12 6 -9
11 11 15 185 5 191 -5 4 -12 2 -16 -4 -10 -17 -25 -11 -25 10 0 16 7 20 35 20
23 0 38 -6 41 -15z m-1266 -1049 c0 -7 14 -25 31 -42 27 -25 30 -34 24 -64 -3
-19 -8 -49 -10 -66 -4 -42 -22 -74 -40 -74 -8 0 -15 -4 -15 -10 0 -25 -21 -5
-51 48 -33 59 -43 132 -20 155 6 6 11 20 11 32 0 14 3 16 9 7 6 -11 11 -10 25
3 9 9 16 21 16 26 0 6 5 7 10 4 6 -3 10 -12 10 -19z"/>
<path d="M4123 4058 c1 -8 -11 -11 -36 -9 -21 1 -44 -2 -51 -8 -7 -6 -24 -10
-37 -9 -13 0 -42 -4 -63 -10 -22 -6 -43 -9 -48 -6 -12 8 -328 13 -328 5 0 -3
-5 -13 -10 -21 -8 -13 -11 -12 -24 5 -12 16 -18 17 -24 7 -7 -10 -11 -10 -22
2 -7 9 -16 13 -21 10 -12 -7 -11 -34 1 -34 20 0 36 -24 32 -48 -3 -17 1 -25
17 -29 11 -3 21 -11 21 -19 0 -7 10 -19 22 -25 17 -9 24 -9 33 5 13 17 30 23
21 7 -8 -12 48 -31 88 -31 17 0 44 -7 60 -15 26 -14 31 -14 53 0 18 12 31 14
59 6 23 -6 45 -6 64 1 16 5 35 8 42 6 7 -3 21 4 32 14 11 10 28 16 37 13 20
-7 39 19 39 53 0 5 11 15 25 22 14 7 25 19 25 26 0 7 6 17 13 21 10 6 11 17 5
41 -8 29 -31 48 -25 20z"/>
<path d="M2026 3111 c-4 -5 3 -7 16 -3 14 3 19 2 14 -6 -4 -7 -13 -12 -19 -12
-7 0 -29 -11 -49 -25 -20 -14 -43 -23 -50 -22 -7 2 -10 2 -5 -1 4 -2 -7 -14
-24 -25 -30 -21 -74 -86 -64 -95 2 -2 18 10 35 27 57 57 121 76 188 55 50 -15
92 -18 92 -8 0 11 -43 78 -54 86 -6 4 -11 13 -11 20 0 15 -60 24 -69 9z"/>
<path d="M5192 2723 c13 -184 21 -235 34 -240 7 -3 38 7 68 21 90 43 120 34
159 -43 19 -39 37 -38 27 1 -27 110 -44 163 -65 200 -14 24 -25 50 -25 59 0 9
-18 33 -40 53 -37 33 -45 36 -103 36 l-62 0 7 -87z"/>
<path d="M1316 2757 c-6 -26 1 -200 9 -228 5 -15 8 -15 30 7 48 47 110 27 153
-50 36 -62 72 -91 72 -56 0 11 9 46 20 77 26 76 26 80 -15 87 -22 5 -48 20
-68 42 -87 96 -119 121 -173 138 -17 5 -23 2 -28 -17z"/>
<path d="M1197 2735 c-61 -25 -113 -63 -197 -145 -27 -27 -58 -50 -67 -52 -12
-2 -19 -14 -21 -36 -4 -37 -7 -36 48 -17 57 20 106 19 201 -6 44 -11 92 -18
105 -15 23 6 24 9 24 100 0 89 -16 197 -29 195 -3 0 -32 -11 -64 -24z"/>
<path d="M5734 2716 c-28 -13 -55 -29 -58 -35 -15 -23 -106 -61 -151 -63 -35
-1 -45 -5 -40 -16 3 -7 8 -26 11 -40 3 -15 15 -58 26 -95 l20 -69 35 7 c19 3
55 19 80 35 62 39 103 46 156 26 58 -22 68 -21 62 7 -2 12 -7 36 -9 52 -3 17
-12 62 -20 100 -9 39 -16 80 -16 93 0 29 -30 29 -96 -2z"/>
<path d="M2880 2670 c-19 -10 -44 -23 -55 -28 -28 -13 -100 -118 -134 -194
-16 -35 -34 -94 -41 -133 -7 -38 -16 -81 -20 -95 -5 -14 -11 -49 -15 -79 -6
-52 -5 -53 17 -47 13 3 37 6 55 6 28 0 32 3 32 28 1 79 0 76 22 57 10 -10 19
-31 19 -46 0 -38 13 -43 52 -19 43 26 76 25 148 -5 76 -32 102 -33 98 -2 -3
19 -11 23 -56 28 -29 4 -63 14 -77 23 -13 9 -41 16 -62 16 -21 0 -45 5 -53 10
-26 17 73 12 107 -5 17 -9 56 -18 87 -21 l56 -6 2 69 1 68 10 -67 c9 -62 12
-68 34 -68 24 0 24 1 18 58 -4 31 -14 72 -21 91 -22 52 -18 54 36 16 51 -36
66 -43 55 -25 -3 6 -2 10 4 10 27 0 43 -18 71 -76 20 -42 41 -71 61 -83 20
-12 26 -20 17 -24 -10 -3 -10 -9 -2 -23 8 -14 20 -18 55 -15 24 1 46 5 48 7
10 9 -24 34 -48 35 -17 1 -20 3 -8 6 16 4 16 6 -3 30 -11 14 -20 34 -20 44 0
29 29 22 36 -8 9 -36 22 -53 52 -64 13 -5 20 -14 17 -19 -11 -18 57 -38 154
-45 87 -7 94 -6 88 9 -4 10 -7 20 -7 22 0 2 -15 5 -32 5 -18 1 -25 3 -15 6 22
6 22 14 -1 44 -10 13 -24 39 -31 57 -13 32 -41 44 -41 18 0 -18 -20 -25 -40
-16 -26 13 -172 58 -240 75 -36 9 -78 22 -95 30 -16 7 -44 19 -62 25 -35 13
-75 50 -54 50 7 0 27 -6 44 -14 74 -33 157 -63 157 -56 0 4 -17 19 -37 34 -21
15 -56 40 -78 56 -23 17 -53 29 -70 30 -17 0 -41 7 -54 16 -18 13 -25 14 -31
4 -6 -9 -13 -4 -26 16 -11 16 -27 38 -37 49 -10 11 -20 31 -23 45 -3 14 -10
38 -14 53 -5 15 -7 34 -4 42 8 19 -3 18 -46 -5z"/>
<path d="M4690 2535 c-7 -8 -19 -15 -26 -15 -8 0 -14 -8 -14 -17 0 -10 -7 -26
-14 -36 -12 -16 -17 -16 -35 -6 -26 17 -36 7 -19 -20 17 -28 25 -27 58 9 15
16 33 30 41 32 8 2 22 12 32 22 9 10 17 14 17 8 0 -6 -4 -13 -9 -17 -5 -3 -19
-36 -31 -73 -12 -37 -33 -83 -45 -102 -13 -19 -26 -46 -30 -59 -7 -23 -6 -24
33 -17 24 3 43 2 47 -4 6 -10 27 -8 57 4 9 4 23 4 30 0 7 -5 21 -7 30 -6 10 2
28 -6 40 -17 12 -12 16 -21 10 -21 -15 0 -16 -36 -1 -45 6 -4 26 -4 45 -1 l34
7 -27 25 -28 25 49 -6 c44 -6 48 -5 43 12 -3 10 -13 43 -21 73 -22 78 -55 138
-101 183 -67 65 -140 92 -165 62z"/>
<path d="M1384 2509 c-42 -21 -48 -51 -59 -261 l-6 -118 38 0 c21 0 55 9 76
20 20 11 53 20 73 20 53 0 38 25 -17 27 -24 1 -48 2 -53 2 -5 1 -2 8 5 17 10
13 24 15 65 10 l51 -6 6 77 c5 68 3 79 -16 105 -76 101 -119 129 -163 107z"/>
<path d="M5345 2483 c-11 -3 -32 -14 -46 -24 -14 -9 -37 -21 -52 -24 -23 -6
-27 -13 -27 -41 0 -39 21 -288 25 -292 1 -1 14 2 29 7 34 14 35 -5 1 -21 -28
-13 -34 -38 -8 -38 9 0 40 16 68 36 63 43 110 51 193 31 57 -13 62 -13 62 3 0
13 -17 19 -84 30 -46 7 -100 10 -120 7 -23 -4 -34 -2 -30 4 14 23 53 26 134
13 46 -7 86 -11 89 -8 2 2 -6 25 -19 50 -12 26 -31 68 -41 95 -17 47 -43 86
-101 150 -26 29 -35 31 -73 22z"/>
<path d="M6722 2466 c-30 -6 -51 -14 -48 -17 4 -3 17 -47 30 -98 14 -51 27
-96 31 -99 3 -3 15 -1 25 6 30 18 36 14 12 -7 -37 -31 -24 -32 21 -1 50 35 70
38 120 21 38 -13 40 -17 38 -61 -1 -18 7 -30 28 -42 37 -20 51 -6 25 23 -20
23 -30 69 -14 69 5 0 10 -8 10 -18 0 -24 40 -49 50 -31 8 12 -8 59 -20 59 -7
0 -5 44 5 81 5 21 0 34 -27 63 -53 58 -164 78 -286 52z"/>
<path d="M990 2451 c-68 -21 -87 -39 -95 -88 -4 -26 -15 -69 -26 -95 -33 -85
-36 -83 104 -84 91 -1 141 -7 197 -23 44 -12 78 -17 83 -12 10 10 30 249 22
261 -3 4 -22 8 -43 8 -20 0 -71 10 -112 21 -80 22 -91 23 -130 12z"/>
<path d="M5680 2416 c-19 -7 -56 -23 -82 -35 l-47 -22 24 -52 c56 -122 81
-166 94 -166 7 -1 32 -14 56 -30 56 -38 121 -47 185 -26 28 9 50 21 50 26 0 5
9 9 20 9 33 0 34 24 11 149 -26 132 -30 144 -55 135 -13 -5 -16 -15 -12 -43 7
-52 33 -183 41 -203 4 -10 3 -18 -3 -18 -5 0 -14 24 -20 53 -20 107 -47 197
-60 197 -7 0 -30 9 -52 20 -45 23 -99 25 -150 6z"/>
<path d="M236 2332 c-3 -5 6 -22 19 -36 14 -15 25 -34 25 -43 0 -8 -22 -36
-50 -62 -43 -40 -50 -53 -50 -84 0 -20 5 -37 10 -37 6 0 10 18 10 40 0 30 5
43 23 54 30 20 77 31 77 18 0 -6 -13 -13 -29 -17 -33 -7 -51 -43 -51 -101 0
-36 2 -37 95 -53 89 -16 145 -21 145 -16 0 8 -103 159 -113 166 -5 4 -26 44
-46 90 -35 79 -53 101 -65 81z"/>
<path d="M4382 2293 c-104 -64 -113 -76 -110 -136 2 -41 7 -53 22 -55 23 -5
66 41 95 100 11 24 32 59 46 78 46 62 33 65 -53 13z"/>
<path d="M6993 1927 c-11 -17 -31 -57 -45 -87 -14 -30 -39 -70 -57 -89 -31
-33 -81 -138 -81 -169 0 -8 39 -54 87 -102 l86 -87 58 41 c35 24 61 51 65 66
7 28 49 73 77 83 19 7 22 22 6 32 -6 4 -21 -2 -33 -14 -33 -31 -55 -27 -25 5
l24 25 -23 17 c-16 13 -26 38 -39 102 -15 77 -20 89 -56 122 -34 32 -37 38
-22 44 12 5 23 0 36 -17 10 -13 19 -18 19 -11 0 21 -19 51 -39 62 -16 8 -22 4
-38 -23z"/>
<path d="M4210 1687 c-14 -13 -34 -27 -45 -31 -28 -8 -56 -58 -45 -76 6 -8 10
-25 10 -37 0 -31 16 -29 24 3 4 15 9 24 13 21 3 -3 14 3 26 13 11 11 24 17 28
14 4 -2 14 5 23 17 13 19 29 23 113 30 54 4 104 8 111 9 6 0 12 8 12 19 0 16
-12 19 -92 25 -51 3 -107 9 -123 12 -24 4 -36 0 -55 -19z"/>
<path d="M0 1476 l0 -53 73 -31 c41 -17 87 -34 103 -38 29 -7 29 -7 11 14 -10
11 -36 33 -58 48 -21 15 -39 32 -39 38 0 8 2 8 8 0 4 -6 19 -14 34 -17 14 -4
33 -10 41 -13 9 -3 20 2 26 14 9 17 1 22 -89 55 -54 21 -101 37 -104 37 -3 0
-6 -24 -6 -54z"/>
<path d="M6790 1411 c0 -37 -3 -96 -7 -131 -6 -60 -5 -62 14 -52 28 15 123
102 123 113 0 5 -8 17 -18 27 -9 9 -28 33 -42 52 -25 36 -49 59 -62 60 -5 0
-8 -31 -8 -69z"/>
<path d="M6433 1443 c9 -14 45 -254 52 -337 6 -86 9 -96 31 -96 13 0 14 16 9
108 -4 59 -11 132 -16 162 -6 30 -12 66 -15 80 -12 67 -21 85 -43 88 -13 2
-21 0 -18 -5z"/>
<path d="M681 1358 c-27 -167 -32 -211 -29 -294 l3 -88 70 -12 c39 -7 92 -22
120 -34 51 -22 175 -43 186 -31 6 6 36 165 65 349 9 59 13 107 8 112 -5 4 -59
10 -119 13 -81 4 -131 12 -187 31 -42 14 -83 26 -90 26 -10 0 -18 -23 -27 -72z"/>
<path d="M6149 1373 c-3 -20 4 -69 10 -78 16 -20 61 -203 71 -284 5 -46 12
-86 15 -89 34 -35 9 241 -36 388 -16 55 -25 70 -40 70 -10 0 -19 -3 -20 -7z"/>
<path d="M0 1228 l0 -133 128 -43 c70 -24 141 -45 157 -49 17 -3 36 -10 43
-16 17 -14 142 -193 168 -242 24 -44 70 -67 86 -44 5 8 7 44 3 82 -4 48 -1 77
10 103 21 50 20 53 -28 151 -31 65 -57 101 -101 143 -32 30 -71 75 -87 99 -23
35 -39 48 -81 63 -62 22 -69 22 -44 3 11 -8 17 -17 14 -21 -4 -3 4 -26 18 -51
32 -61 30 -73 -6 -38 -16 16 -32 26 -35 23 -3 -3 -8 -23 -11 -44 -11 -82 -13
-87 -31 -72 -28 23 -40 66 -32 116 4 26 4 50 1 54 -9 8 -139 48 -158 48 -11 0
-14 -26 -14 -132z"/>
<path d="M1185 1347 c-7 -19 -33 -157 -41 -212 -3 -27 -15 -93 -25 -145 -10
-52 -17 -95 -16 -97 1 -1 88 -7 192 -13 105 -6 205 -12 223 -14 18 -2 35 0 38
6 6 10 47 287 58 394 l7 61 -73 11 c-110 17 -358 23 -363 9z"/>
<path d="M6054 1324 c-28 -16 -85 -31 -182 -48 -78 -13 -145 -27 -150 -30 -11
-7 -7 -53 18 -194 40 -220 38 -215 69 -208 14 3 109 19 210 36 101 17 188 33
193 36 12 7 5 49 -45 256 -32 135 -46 178 -57 177 -8 -1 -33 -12 -56 -25z"/>
<path d="M1647 1288 c-4 -24 -11 -72 -16 -108 -17 -116 -41 -293 -41 -308 0
-8 8 -12 22 -10 20 3 24 12 35 88 28 196 35 380 13 380 -4 0 -10 -19 -13 -42z"/>
<path d="M5300 1271 c-30 -8 -31 -23 -10 -272 l14 -165 106 -12 c117 -13 230
-15 279 -6 24 5 31 11 26 23 -4 9 -20 93 -36 186 -16 94 -31 179 -34 191 -4
18 -14 22 -72 27 -38 3 -81 13 -98 21 -31 16 -128 20 -175 7z"/>
<path d="M2387 1259 c-15 -9 -17 -33 -17 -234 l0 -225 28 -1 c15 0 41 -2 57
-4 17 -2 94 -6 173 -9 135 -7 143 -6 138 11 -3 10 -7 34 -10 53 -3 19 -12 78
-20 130 -8 52 -18 125 -21 163 -6 58 -9 67 -26 67 -11 0 -42 11 -68 25 -37 18
-70 26 -133 29 -46 2 -91 0 -101 -5z"/>
<path d="M3659 1222 c-1 -4 -2 -18 -2 -32 -2 -17 -9 -26 -27 -30 -15 -4 -26
-14 -28 -27 l-3 -21 38 19 c29 15 37 25 35 40 -3 14 1 20 10 17 7 -3 13 -14
12 -26 0 -12 3 -19 7 -16 16 9 60 -17 79 -48 42 -68 11 -168 -59 -189 -28 -8
-43 -8 -59 0 -11 6 -24 11 -29 11 -4 0 -6 -46 -3 -102 l5 -103 120 -1 c181 -1
225 4 225 26 0 18 35 30 93 30 l30 0 -7 83 c-3 45 -9 149 -13 231 l-6 148 -65
-6 c-41 -4 -70 -13 -77 -22 -11 -16 -172 -43 -207 -36 -10 2 -21 14 -24 27 -5
21 -43 43 -45 27z"/>
<path d="M4130 1194 c0 -16 7 -116 17 -222 15 -175 19 -195 37 -207 20 -13
174 -35 267 -38 l44 -2 3 150 c2 83 0 187 -3 233 l-7 82 -51 0 c-29 0 -70 5
-92 10 -22 5 -79 12 -127 16 l-88 7 0 -29z"/>
<path d="M2773 1078 c6 -119 16 -209 33 -290 7 -33 23 -36 228 -41 l138 -4 -5
34 c-4 20 -2 31 4 28 5 -4 9 -22 9 -41 0 -19 5 -34 11 -34 8 0 9 27 4 93 -5
50 -11 153 -14 227 -5 118 -8 135 -24 138 -18 4 -19 -11 -2 -233 l5 -70 -14
85 c-8 47 -17 115 -21 153 -5 50 -12 70 -25 77 -10 6 -89 10 -176 10 l-157 0
6 -132z"/>
<path d="M3406 1117 c-3 -18 -1 -66 5 -107 6 -41 13 -127 16 -192 l5 -116 37
-4 c20 -1 51 -2 69 0 l32 3 0 110 c0 64 -5 119 -12 132 -6 12 -13 63 -16 113
l-5 92 -62 1 -63 0 -6 -32z"/>
<path d="M7100 917 c-41 -24 -85 -49 -96 -57 l-21 -13 20 -39 c16 -29 27 -38
46 -38 32 -1 61 -22 61 -44 0 -10 7 -39 16 -67 13 -40 14 -52 4 -64 -10 -12
-10 -19 -2 -27 7 -7 12 -19 12 -28 1 -14 43 -70 55 -70 3 0 5 110 5 245 0 192
-3 245 -13 245 -7 0 -46 -19 -87 -43z"/>
<path d="M6522 931 c-10 -6 -8 -44 12 -192 14 -101 28 -210 32 -242 6 -52 9
-58 28 -55 19 3 21 8 17 53 -6 93 -58 426 -67 435 -5 5 -15 6 -22 1z"/>
<path d="M675 869 c4 -13 9 -82 10 -154 2 -146 5 -167 42 -282 25 -77 28 -82
52 -77 14 2 71 -2 126 -9 55 -8 103 -13 106 -11 3 2 6 97 8 211 1 114 4 223 7
241 4 23 1 32 -9 32 -8 0 -61 13 -118 30 -57 16 -133 33 -168 36 l-64 7 8 -24z"/>
<path d="M6245 850 c-3 -6 -3 -19 0 -30 4 -11 2 -20 -4 -20 -6 0 -11 10 -11
21 0 18 -5 20 -27 16 -16 -2 -102 -17 -193 -32 -91 -15 -175 -31 -186 -36
l-22 -8 35 -163 c24 -115 33 -179 29 -216 -8 -85 -9 -84 113 -77 82 5 102 4
88 -5 -11 -7 -38 -14 -60 -16 -111 -10 -137 -16 -137 -32 0 -10 4 -22 8 -28 9
-13 169 -2 197 13 11 6 50 16 85 22 92 16 110 27 110 68 0 22 -4 32 -11 28 -6
-4 -8 -13 -5 -21 3 -8 1 -14 -3 -14 -5 0 -11 6 -14 13 -4 10 -7 9 -18 0 -7 -7
-33 -13 -58 -12 l-46 1 50 13 c28 8 57 23 66 34 9 11 19 18 22 15 2 -3 3 32 1
78 -2 46 -6 132 -8 191 -3 59 -1 105 3 102 5 -3 11 18 13 46 3 49 -4 70 -17
49z"/>
<path d="M1086 774 c-10 -56 -26 -432 -20 -449 7 -17 16 -18 252 -20 139 -1
162 1 163 15 5 98 13 156 29 219 10 42 22 115 26 162 l6 86 -38 7 c-22 3 -123
9 -225 13 l-186 6 -7 -39z"/>
<path d="M6852 743 c-67 -68 -100 -109 -114 -143 -6 -14 -12 -87 -14 -162 -4
-123 -3 -137 12 -131 8 3 20 17 25 31 9 23 11 24 28 8 18 -17 18 -19 -10 -69
-16 -29 -29 -59 -29 -67 0 -20 82 -120 92 -114 5 3 24 36 42 72 38 74 73 110
189 196 l78 58 -36 49 c-19 27 -35 53 -35 58 0 5 -34 -8 -76 -30 -99 -51 -112
-50 -72 5 22 32 46 51 84 68 49 21 53 26 52 55 -1 18 5 39 12 48 7 8 11 17 9
19 -17 15 -96 45 -109 41 -10 -3 -22 7 -34 30 -11 19 -23 35 -28 35 -5 0 -35
-26 -66 -57z"/>
<path d="M1588 783 c-17 -4 -22 -25 -33 -148 -4 -38 -14 -86 -22 -105 -16 -39
-33 -219 -21 -226 18 -11 28 10 28 61 0 29 9 82 20 119 19 60 60 262 60 293 0
13 -3 14 -32 6z"/>
<path d="M5310 742 c0 -14 30 -359 36 -412 3 -30 8 -58 11 -64 8 -12 333 -1
402 14 l53 12 -6 67 c-4 36 -13 98 -21 136 -8 39 -23 109 -32 158 l-18 87
-212 4 c-117 3 -213 1 -213 -2z"/>
<path d="M318 688 c8 -18 24 -39 34 -46 10 -7 18 -20 18 -28 0 -18 35 -88 65
-129 12 -16 32 -51 46 -77 25 -51 36 -58 46 -32 6 15 -17 68 -67 154 -11 19
-31 60 -45 90 -15 34 -37 63 -58 78 -47 31 -59 28 -39 -10z"/>
<path d="M2366 712 c-12 -19 -11 -451 0 -462 6 -6 53 -13 105 -15 52 -2 142
-7 202 -10 l107 -7 1 114 c1 218 -2 363 -10 371 -12 12 -397 21 -405 9z"/>
<path d="M2823 674 c11 -56 20 -191 21 -324 l1 -135 95 -7 c126 -9 231 -11
238 -4 10 11 4 448 -7 459 -5 5 -76 13 -158 18 -81 4 -159 11 -172 15 -21 6
-23 5 -18 -22z"/>
<path d="M4009 693 c-15 -2 -29 -12 -32 -23 -4 -16 -21 -19 -166 -25 -89 -4
-163 -10 -165 -14 -4 -7 13 -461 18 -476 3 -7 34 -8 92 -3 245 20 252 20 259
8 12 -20 -12 -27 -109 -34 -242 -17 -236 -16 -236 -44 l0 -25 123 7 c67 5 131
9 142 11 11 1 35 3 53 4 25 1 32 5 32 21 0 11 6 20 13 21 6 1 32 2 57 3 25 0
44 4 43 9 -2 4 -3 16 -3 27 0 17 -7 20 -51 20 -66 0 -62 24 5 28 36 2 46 7 42
17 -3 8 -8 101 -11 207 -10 284 -6 263 -46 264 -19 1 -46 0 -60 -3z"/>
<path d="M4167 643 c5 -117 25 -398 29 -413 3 -11 18 -16 47 -17 24 -1 70 -9
104 -17 33 -9 84 -16 112 -16 l50 0 0 234 0 233 -122 13 c-67 7 -137 19 -156
26 -60 25 -66 21 -64 -43z"/>
<path d="M3193 624 c3 -22 9 -126 13 -231 7 -187 8 -193 28 -193 20 0 21 5 19
87 -3 87 -18 251 -32 327 -3 22 -13 42 -20 44 -11 4 -13 -4 -8 -34z"/>
<path d="M4537 653 c-9 -8 -9 -355 -1 -417 6 -40 10 -46 30 -46 21 0 23 3 19
48 -6 63 -15 271 -15 355 0 49 -4 67 -13 67 -8 0 -17 -3 -20 -7z"/>
<path d="M3461 623 l-24 -5 6 -236 c3 -129 11 -240 16 -245 6 -6 37 -7 77 -2
l67 7 -6 96 c-4 54 -10 163 -13 245 l-7 147 -46 -1 c-25 -1 -57 -4 -70 -6z"/>
<path d="M760 323 c0 -41 12 -63 34 -61 11 1 65 -2 119 -6 l98 -8 -3 33 c-3
37 -4 37 -132 39 -44 1 -88 6 -98 11 -14 8 -18 6 -18 -8z"/>
<path d="M13 293 c-10 -3 -13 -43 -13 -149 l0 -144 180 0 c99 0 180 3 180 8 0
4 -14 34 -30 66 -17 32 -30 61 -30 64 0 12 52 -65 67 -100 18 -40 43 -51 43
-19 0 19 -85 127 -148 189 -32 32 -49 42 -37 22 9 -15 -4 -12 -33 8 -37 25
-72 40 -107 45 -16 3 -37 8 -45 11 -8 2 -21 2 -27 -1z"/>
<path d="M1070 272 c0 -27 5 -32 38 -41 20 -6 112 -11 205 -11 l167 0 0 25 c0
24 -3 25 -57 26 -32 1 -61 1 -65 0 -11 -1 -201 18 -246 25 -42 7 -42 6 -42
-24z"/>
<path d="M5681 250 c-18 -4 -84 -11 -145 -16 -124 -8 -157 -11 -168 -13 -5 0
-8 -13 -8 -27 l0 -27 128 5 c103 5 306 32 320 44 2 1 1 12 -3 23 -5 17 -14 21
-48 20 -23 -1 -57 -5 -76 -9z"/>
<path d="M2370 191 c0 -10 6 -23 13 -29 6 -5 96 -13 200 -17 l187 -7 0 25 c0
25 -2 25 -92 31 -291 17 -308 17 -308 -3z"/>
<path d="M2840 156 c0 -19 6 -25 33 -29 36 -6 138 -11 237 -12 63 0 65 1 68
26 3 26 3 26 -89 32 -51 4 -127 7 -171 7 -76 0 -78 -1 -78 -24z"/>
<path d="M4200 155 c0 -24 3 -25 63 -25 34 -1 80 -7 102 -15 22 -8 66 -15 99
-15 49 0 57 2 52 16 -3 9 -6 20 -6 25 0 5 -17 9 -38 9 -21 0 -64 7 -95 15 -32
8 -85 15 -117 15 -57 0 -60 -1 -60 -25z"/>
</g>
</svg>
